<?xml version="1.0" standalone="no"?>
<!DOCTYPE svg PUBLIC "-//W3C//DTD SVG 20010904//EN"
 "http://www.w3.org/TR/2001/REC-SVG-20010904/DTD/svg10.dtd">
<svg version="1.0" xmlns="http://www.w3.org/2000/svg"
 width="1537.000000pt" height="1221.000000pt" viewBox="0 0 1537.000000 1221.000000"
 preserveAspectRatio="xMidYMid meet">

<g transform="translate(0.000000,1221.000000) scale(0.100000,-0.100000)"
fill="#000000" stroke="none">
<path d="M7739 8211 l-29 -30 2 -1816 3 -1817 24 -19 c36 -30 83 -24 153 19
35 21 99 57 143 79 83 41 161 85 305 170 122 73 489 288 595 348 50 28 140 81
200 117 61 36 120 68 131 72 43 13 78 63 83 119 4 28 4 466 3 971 l-4 920 -31
31 c-18 17 -88 64 -157 105 -69 40 -146 86 -173 102 -26 15 -49 28 -51 28 -2
0 -102 57 -222 126 -121 70 -294 170 -386 223 -92 53 -228 131 -302 174 -134
77 -201 107 -238 107 -11 0 -33 -13 -49 -29z m612 -877 c39 -25 128 -75 197
-111 144 -74 235 -133 257 -166 13 -20 15 -117 15 -684 0 -363 -2 -668 -6
-677 -6 -16 -140 -99 -328 -202 -122 -66 -156 -86 -190 -109 -58 -39 -56 -79
-56 995 0 976 1 1000 32 1000 4 0 39 -21 79 -46z"/>
<path d="M7800 4242 c-11 -4 -15 -819 -4 -846 5 -14 30 -16 173 -16 230 0 317
25 410 119 32 32 55 69 76 121 27 66 30 85 30 185 0 158 -26 236 -109 320 -93
95 -134 107 -374 114 -106 3 -197 5 -202 3z m325 -183 c48 -13 78 -39 113 -98
24 -40 26 -55 26 -145 0 -85 -3 -109 -23 -149 -29 -60 -74 -94 -143 -109 -93
-19 -88 -34 -88 250 0 137 3 252 7 255 10 10 63 8 108 -4z"/>
<path d="M8775 4053 c-44 -7 -130 -68 -169 -121 -66 -91 -86 -186 -62 -300 23
-110 81 -185 186 -239 49 -25 65 -28 145 -27 68 0 104 6 150 23 91 35 92 38
55 105 -18 31 -35 56 -40 56 -4 0 -24 -7 -43 -15 -42 -17 -107 -19 -156 -5
-43 12 -93 65 -89 94 3 20 8 21 190 24 l188 2 6 26 c8 33 -1 158 -16 207 -17
58 -115 151 -173 165 -45 12 -112 13 -172 5z m151 -177 c21 -20 34 -74 21 -84
-9 -8 -151 -10 -189 -3 -5 0 -8 14 -8 30 0 29 30 60 70 73 23 8 94 -3 106 -16z"/>
<path d="M9145 4038 c-3 -8 2 -32 11 -54 9 -21 20 -55 25 -74 10 -51 120 -373
174 -512 6 -16 22 -18 119 -18 104 0 114 2 133 23 19 20 62 145 147 427 19 63
42 135 50 159 9 24 16 45 16 46 0 6 -131 13 -167 8 l-41 -5 -17 -72 c-9 -39
-25 -107 -35 -151 -16 -76 -55 -224 -66 -254 -9 -28 -25 6 -48 105 -29 123
-53 219 -78 307 l-19 67 -84 0 c-46 0 -90 3 -99 6 -9 3 -18 0 -21 -8z"/>
</g>
</svg>
